<?xml version="1.0" encoding="UTF-8" standalone="no"?>
<svg
   xmlns:dc="http://purl.org/dc/elements/1.1/"
   xmlns:cc="http://creativecommons.org/ns#"
   xmlns:rdf="http://www.w3.org/1999/02/22-rdf-syntax-ns#"
   xmlns:svg="http://www.w3.org/2000/svg"
   xmlns="http://www.w3.org/2000/svg"
   xmlns:xlink="http://www.w3.org/1999/xlink"
   xmlns:sodipodi="http://sodipodi.sourceforge.net/DTD/sodipodi-0.dtd"
   xmlns:inkscape="http://www.inkscape.org/namespaces/inkscape"
   width="394.45673"
   height="159.30998"
   version="1.1"
   id="svg70"
   sodipodi:docname="marker.svg"
   inkscape:version="0.92.3 (2405546, 2018-03-11)">
  <metadata
     id="metadata74">
    <rdf:RDF>
      <cc:Work
         rdf:about="">
        <dc:format>image/svg+xml</dc:format>
        <dc:type
           rdf:resource="http://purl.org/dc/dcmitype/StillImage" />
        <dc:title></dc:title>
      </cc:Work>
    </rdf:RDF>
  </metadata>
  <sodipodi:namedview
     pagecolor="#ffffff"
     bordercolor="#666666"
     borderopacity="1"
     objecttolerance="10"
     gridtolerance="10"
     guidetolerance="10"
     inkscape:pageopacity="0"
     inkscape:pageshadow="2"
     inkscape:window-width="2464"
     inkscape:window-height="1092"
     id="namedview72"
     showgrid="false"
     fit-margin-top="0"
     fit-margin-left="0"
     fit-margin-right="0"
     fit-margin-bottom="0"
     showguides="false"
     inkscape:zoom="3.5881187"
     inkscape:cx="183.75066"
     inkscape:cy="65.225024"
     inkscape:window-x="2526"
     inkscape:window-y="135"
     inkscape:window-maximized="0"
     inkscape:current-layer="svg70" />
  <defs
     id="defs38">
    <linearGradient
       id="b">
      <stop
         offset="0"
         stop-color="#2e6c97"
         id="stop2" />
      <stop
         offset="1"
         stop-color="#3883b7"
         id="stop4" />
    </linearGradient>
    <linearGradient
       id="a">
      <stop
         offset="0"
         stop-color="#126fc6"
         id="stop7" />
      <stop
         offset="1"
         stop-color="#4c9cd1"
         id="stop9" />
    </linearGradient>
    <linearGradient
       xlink:href="#a"
       x1="351.138"
       y1="551.58899"
       x2="351.138"
       y2="512.92798"
       gradientUnits="userSpaceOnUse"
       gradientTransform="translate(-2.715)"
       id="linearGradient12" />
    <linearGradient
       xlink:href="#a"
       x1="318.57101"
       y1="550.052"
       x2="318.57101"
       y2="512.422"
       gradientUnits="userSpaceOnUse"
       gradientTransform="translate(94.732,2.054)"
       id="linearGradient14" />
    <linearGradient
       xlink:href="#a"
       gradientUnits="userSpaceOnUse"
       gradientTransform="matrix(-1,0,0,1,731.268,2.054)"
       x1="318.57101"
       y1="550.052"
       x2="318.57101"
       y2="512.422"
       id="linearGradient16" />
    <linearGradient
       xlink:href="#a"
       gradientUnits="userSpaceOnUse"
       gradientTransform="translate(94.232,2.054)"
       x1="318.57101"
       y1="550.052"
       x2="318.57101"
       y2="512.422"
       id="linearGradient18" />
    <linearGradient
       xlink:href="#a"
       gradientUnits="userSpaceOnUse"
       gradientTransform="translate(-28.58,-0.437)"
       x1="445.30099"
       y1="541.28601"
       x2="445.30099"
       y2="503.72"
       id="linearGradient20" />
    <linearGradient
       xlink:href="#b"
       gradientUnits="userSpaceOnUse"
       gradientTransform="translate(63,-0.438)"
       x1="351.74799"
       y1="522.77399"
       x2="351.74799"
       y2="503.72101"
       id="linearGradient22" />
    <linearGradient
       xlink:href="#a"
       gradientUnits="userSpaceOnUse"
       gradientTransform="translate(-28.58,-0.437)"
       x1="445.30099"
       y1="541.28601"
       x2="445.30099"
       y2="503.72"
       id="linearGradient24" />
    <linearGradient
       xlink:href="#b"
       gradientUnits="userSpaceOnUse"
       gradientTransform="translate(63,-0.438)"
       x1="351.74799"
       y1="522.77399"
       x2="351.74799"
       y2="503.72101"
       id="linearGradient26" />
    <linearGradient
       xlink:href="#a"
       gradientUnits="userSpaceOnUse"
       gradientTransform="translate(-28.58,-0.437)"
       x1="445.30099"
       y1="541.28601"
       x2="445.30099"
       y2="503.72"
       id="linearGradient28" />
    <linearGradient
       xlink:href="#b"
       gradientUnits="userSpaceOnUse"
       gradientTransform="translate(63,-0.438)"
       x1="351.74799"
       y1="522.77399"
       x2="351.74799"
       y2="503.72101"
       id="linearGradient30" />
    <linearGradient
       xlink:href="#a"
       id="c"
       gradientUnits="userSpaceOnUse"
       gradientTransform="translate(-28.846,-0.287)"
       x1="445.30099"
       y1="541.28601"
       x2="445.30099"
       y2="503.72" />
    <linearGradient
       xlink:href="#b"
       id="d"
       gradientUnits="userSpaceOnUse"
       gradientTransform="translate(62.734,-0.288)"
       x1="351.74799"
       y1="522.77399"
       x2="351.74799"
       y2="503.72101" />
    <linearGradient
       xlink:href="#a"
       gradientUnits="userSpaceOnUse"
       gradientTransform="translate(-28.846,-0.287)"
       x1="445.30099"
       y1="541.28601"
       x2="445.30099"
       y2="503.72"
       id="linearGradient34" />
    <linearGradient
       xlink:href="#b"
       gradientUnits="userSpaceOnUse"
       gradientTransform="translate(62.734,-0.288)"
       x1="351.74799"
       y1="522.77399"
       x2="351.74799"
       y2="503.72101"
       id="linearGradient36" />
    <linearGradient
       xlink:href="#a"
       id="c-6"
       gradientUnits="userSpaceOnUse"
       gradientTransform="translate(144.93547,-1.322637)"
       x1="445.30099"
       y1="541.28601"
       x2="445.30099"
       y2="503.72" />
    <linearGradient
       xlink:href="#b"
       id="d-7"
       gradientUnits="userSpaceOnUse"
       gradientTransform="translate(236.51547,-1.323637)"
       x1="351.74799"
       y1="522.77399"
       x2="351.74799"
       y2="503.72101" />
    <linearGradient
       xlink:href="#a"
       id="c-0"
       gradientUnits="userSpaceOnUse"
       gradientTransform="translate(224.68843,36.227138)"
       x1="445.30099"
       y1="541.28601"
       x2="445.30099"
       y2="503.72" />
    <linearGradient
       xlink:href="#b"
       id="d-2"
       gradientUnits="userSpaceOnUse"
       gradientTransform="translate(316.26843,36.226138)"
       x1="351.74799"
       y1="522.77399"
       x2="351.74799"
       y2="503.72101" />
    <linearGradient
       xlink:href="#a"
       id="c-9"
       gradientUnits="userSpaceOnUse"
       gradientTransform="translate(149.51872,88.159406)"
       x1="445.30099"
       y1="541.28601"
       x2="445.30099"
       y2="503.72" />
    <linearGradient
       xlink:href="#b"
       id="d-8"
       gradientUnits="userSpaceOnUse"
       gradientTransform="translate(261.16495,109.06072)"
       x1="351.74799"
       y1="522.77399"
       x2="351.74799"
       y2="503.72101" />
    <linearGradient
       xlink:href="#b"
       id="d-8-0"
       gradientUnits="userSpaceOnUse"
       gradientTransform="translate(314.06586,110.73122)"
       x1="351.74799"
       y1="522.77399"
       x2="351.74799"
       y2="503.72101" />
  </defs>
  <circle
     style="fill:#ffffff;fill-opacity:1;stroke:#3e3f41;stroke-width:0.56099999;stroke-linecap:butt;stroke-linejoin:round;stroke-miterlimit:4;stroke-dasharray:none;stroke-opacity:1;paint-order:normal"
     id="path1179"
     cx="89.282318"
     cy="34.395729"
     r="25.32336"
     inkscape:export-filename="/home/poschi/projekte/entbehrliches/git/themes/fixed/static/img/map-podcast.png"
     inkscape:export-xdpi="90"
     inkscape:export-ydpi="90" />
  <g
     id="g835-7-5"
     transform="matrix(1.1645587,0,0,1.2002558,68.32025,11.174739)"
     inkscape:export-filename="/home/poschi/projekte/entbehrliches/git/themes/fixed/static/img/map-podcast.png"
     inkscape:export-xdpi="90.685181"
     inkscape:export-ydpi="90.685181"
     style="stroke:none;stroke-width:1.0007621;stroke-linecap:butt;stroke-linejoin:round;stroke-miterlimit:4;stroke-dasharray:none;stroke-opacity:1;paint-order:normal">
    <path
       style="fill:#66757f;stroke:none;stroke-width:1.0007621;stroke-linecap:butt;stroke-linejoin:round;stroke-miterlimit:4;stroke-dasharray:none;stroke-opacity:1;paint-order:normal"
       inkscape:connector-curvature="0"
       id="path2-1-1"
       d="M 18,0 C 9.716,0 3,6.716 3,15 v 9 H 6 V 15 C 6,8 11.269,2.812 18,2.812 24.73,2.812 30,8 30,15 v 10 l 3,-1 V 15 C 33,6.716 26.284,0 18,0 Z" />
    <path
       style="fill:#31373d;stroke:none;stroke-width:1.0007621;stroke-linecap:butt;stroke-linejoin:round;stroke-miterlimit:4;stroke-dasharray:none;stroke-opacity:1;paint-order:normal"
       inkscape:connector-curvature="0"
       id="path4-3-7"
       d="m 6,27 c 0,1.104 -0.896,2 -2,2 H 2 C 0.896,29 0,28.104 0,27 v -9 c 0,-1.104 0.896,-2 2,-2 h 2 c 1.104,0 2,0.896 2,2 z m 30,0 c 0,1.104 -0.896,2 -2,2 h -2 c -1.104,0 -2,-0.896 -2,-2 v -9 c 0,-1.104 0.896,-2 2,-2 h 2 c 1.104,0 2,0.896 2,2 z" />
    <path
       style="fill:#55acee;stroke:none;stroke-width:1.0007621;stroke-linecap:butt;stroke-linejoin:round;stroke-miterlimit:4;stroke-dasharray:none;stroke-opacity:1;paint-order:normal"
       inkscape:connector-curvature="0"
       id="path6-8-4"
       d="m 19.182,10.016 -6.364,1.313 C 12.368,11.422 12,11.873 12,12.333 v 16.185 c -0.638,-0.227 -1.341,-0.36 -2.087,-0.36 -2.785,0 -5.042,1.755 -5.042,3.922 0,2.165 2.258,3.827 5.042,3.827 C 12.649,35.905 14.922,34 15,32 V 16.39 l 4.204,-0.872 C 19.653,15.425 20,14.973 20,14.514 v -3.832 c 0,-0.458 -0.368,-0.759 -0.818,-0.666 z m 8,3.151 -4.297,0.865 C 22.435,14.125 22,14.576 22,15.035 V 26.44 c 0,-0.152 -0.878,-0.24 -1.4,-0.24 -2.024,0 -3.633,1.276 -3.633,2.852 0,1.574 1.658,2.851 3.683,2.851 2.025,0 3.677,-1.277 3.677,-2.851 L 24.313,17.766 27.182,17.168 C 27.632,17.075 28,16.624 28,16.165 v -2.33 c 0,-0.459 -0.368,-0.76 -0.818,-0.668 z" />
  </g>
  <circle
     style="fill:#ffffff;fill-opacity:1;stroke:#3e3f41;stroke-width:0.56099999;stroke-linecap:butt;stroke-linejoin:round;stroke-miterlimit:4;stroke-dasharray:none;stroke-opacity:1;paint-order:normal"
     id="path1179-1"
     cx="30.063023"
     cy="31.735209"
     r="25.32336"
     inkscape:export-filename="/home/poschi/projekte/entbehrliches/git/themes/fixed/static/img/map-article.png"
     inkscape:export-xdpi="90"
     inkscape:export-ydpi="90" />
  <g
     transform="matrix(0.97705742,0,0,1.0874941,12.47599,12.160349)"
     id="g824-9-7"
     style="stroke:none;stroke-width:0.99907184;stroke-linejoin:miter;stroke-miterlimit:4;stroke-dasharray:none;stroke-opacity:1;paint-order:normal"
     inkscape:export-filename="/home/poschi/projekte/entbehrliches/git/themes/fixed/static/img/map-article.png"
     inkscape:export-xdpi="90.685181"
     inkscape:export-ydpi="90.685181">
    <path
       style="fill:#e1e8ed;stroke:none;stroke-width:0.99907184;stroke-linejoin:miter;stroke-miterlimit:4;stroke-dasharray:none;stroke-opacity:1;paint-order:normal"
       inkscape:connector-curvature="0"
       id="path2-6-3-1"
       d="m 32.415,9.586 -9,-9 C 23.054,0.225 22.553,0 22,0 c -1.104,0 -1.999,0.896 -2,2 0,0.552 0.224,1.053 0.586,1.415 l -3.859,3.859 9,9 3.859,-3.859 C 29.948,12.776 30.448,13 31,13 c 1.104,0 2.001,-0.896 2,-2 0,-0.552 -0.224,-1.052 -0.585,-1.414 z" />
    <path
       style="fill:#ccd6dd;stroke:none;stroke-width:0.99907184;stroke-linejoin:miter;stroke-miterlimit:4;stroke-dasharray:none;stroke-opacity:1;paint-order:normal"
       inkscape:connector-curvature="0"
       id="path4-7-2-1"
       d="M 22,0 H 7 C 4.791,0 3,1.791 3,4 v 28 c 0,2.209 1.791,4 4,4 h 22 c 2.209,0 4,-1.791 4,-4 V 11 h -9 c -1,0 -2,-1 -2,-2 z" />
    <path
       style="fill:#99aab5;stroke:none;stroke-width:0.99907184;stroke-linejoin:miter;stroke-miterlimit:4;stroke-dasharray:none;stroke-opacity:1;paint-order:normal"
       inkscape:connector-curvature="0"
       id="path6-7-4-1"
       d="m 22,0 h -2 v 9 c 0,2.209 1.791,4 4,4 h 9 v -2 h -9 c -1,0 -2,-1 -2,-2 z m -5,8 c 0,0.552 -0.448,1 -1,1 H 8 C 7.448,9 7,8.552 7,8 7,7.448 7.448,7 8,7 h 8 c 0.552,0 1,0.448 1,1 z m 0,4 c 0,0.552 -0.448,1 -1,1 H 8 C 7.448,13 7,12.552 7,12 7,11.448 7.448,11 8,11 h 8 c 0.552,0 1,0.448 1,1 z m 12,4 c 0,0.552 -0.447,1 -1,1 H 8 C 7.448,17 7,16.552 7,16 7,15.448 7.448,15 8,15 h 20 c 0.553,0 1,0.448 1,1 z m 0,4 c 0,0.553 -0.447,1 -1,1 H 8 C 7.448,21 7,20.553 7,20 7,19.447 7.448,19 8,19 h 20 c 0.553,0 1,0.447 1,1 z m 0,4 c 0,0.553 -0.447,1 -1,1 H 8 C 7.448,25 7,24.553 7,24 7,23.447 7.448,23 8,23 h 20 c 0.553,0 1,0.447 1,1 z m 0,4 c 0,0.553 -0.447,1 -1,1 H 8 C 7.448,29 7,28.553 7,28 7,27.447 7.448,27 8,27 h 20 c 0.553,0 1,0.447 1,1 z" />
  </g>
  <text
     xml:space="preserve"
     style="font-style:normal;font-weight:normal;font-size:40px;line-height:100%;font-family:sans-serif;letter-spacing:0px;word-spacing:0px;fill:#000000;fill-opacity:1;stroke:none;stroke-width:1px;stroke-linecap:butt;stroke-linejoin:miter;stroke-opacity:1"
     x="13.263268"
     y="98.353989"
     id="text1278"><tspan
       sodipodi:role="line"
       id="tspan1276"
       x="13.263268"
       y="98.353989"
       style="font-size:16px;line-height:100%">Select it and the area around with box select.</tspan><tspan
       sodipodi:role="line"
       x="13.263268"
       y="138.35399"
       id="tspan1286"
       style="font-size:16px;line-height:100%">should be exactly 48x48 at 90dpi</tspan></text>
  <text
     xml:space="preserve"
     style="font-style:normal;font-weight:normal;font-size:40px;line-height:125%;font-family:sans-serif;letter-spacing:0px;word-spacing:0px;fill:#000000;fill-opacity:1;stroke:none;stroke-width:1px;stroke-linecap:butt;stroke-linejoin:miter;stroke-opacity:1"
     x="910.17303"
     y="-44.136253"
     id="text1282"><tspan
       sodipodi:role="line"
       id="tspan1280"
       x="910.17303"
       y="-8.7456293"></tspan><tspan
       sodipodi:role="line"
       x="910.17303"
       y="41.254372"
       id="tspan1284" /></text>
</svg>
